<svg xmlns="http://www.w3.org/2000/svg" width="651.463" height="403.79" viewBox="0 0 651.463 403.79"><g transform="translate(-187.977 -200.447)"><g opacity="0.83"><g transform="translate(2977 1432)" fill="none"><path d="M-2730.432-916.808h556.94l-177.078-285.61-174.81,131.436v74.2l-79.383-17.137Z" stroke="none"/><path d="M -2173.492431640625 -916.8082885742188 L -2350.57080078125 -1202.418334960938 L -2525.38037109375 -1070.982543945313 L -2525.38037109375 -996.7791137695313 L -2604.763671875 -1013.915710449219 L -2730.43212890625 -916.8082885742188 L -2173.492431640625 -916.8082885742188 M -2137.560302734375 -896.8082885742188 L -2173.492431640625 -896.8082885742188 L -2730.43212890625 -896.8082885742188 L -2789.023681640625 -896.8082885742188 L -2742.6611328125 -932.634033203125 L -2616.99267578125 -1029.741455078125 L -2609.6337890625 -1035.427734375 L -2600.54345703125 -1033.46533203125 L -2545.38037109375 -1021.557189941406 L -2545.38037109375 -1070.982543945313 L -2545.38037109375 -1080.967529296875 L -2537.399658203125 -1086.968139648438 L -2362.58984375 -1218.403930664063 L -2345.10205078125 -1231.552856445313 L -2333.57275390625 -1212.957153320313 L -2156.494384765625 -927.3471069335938 L -2137.560302734375 -896.8082885742188 Z" stroke="none" fill="rgba(232,25,156,0.9)"/></g><path d="M-2173.492-916.808l-105.676-85.683v-88.539Z" transform="translate(2977 1432)" fill="rgba(232,25,156,0.53)"/><path d="M-2173.492-916.808l-105.676-85.683v-88.539Z" transform="matrix(-0.07, -0.998, 0.998, -0.07, 1387.843, -2002.856)" fill="rgba(232,25,156,0.5)"/><path d="M-2173.492-916.808l-105.676-85.683v-88.539Z" transform="translate(-1454.502 1905.362) rotate(121)" fill="rgba(232,25,156,0.53)"/></g></g></svg>